<?xml version="1.0" encoding="utf-8"?>
<svg x="0pt" y="0pt" width="800pt" height="115pt" viewBox="0 0 800 115" xmlns="http://www.w3.org/2000/svg" xmlns:xlink="http://www.w3.org/1999/xlink">
  <g id="Layer 1">
    <g id="Group">
      <g id="svg_2">
        <path id="svg_5" style="fill:#f7931a;fill-opacity:1;fill-rule:nonzero;opacity:1;stroke:none;" d="M80.6498,32.1664 C80.6498,32.1664,80.6498,32.1664,80.6498,32.1664 C80.6498,23.4049,76.4987,16.8913,68.1967,12.6254 C68.1967,12.6254,68.1967,12.6254,68.1967,12.6254 C62.7659,9.9674,56.244,8.6384,48.631,8.6384 C48.631,8.6384,48.631,8.6384,48.631,8.6384 C32.4207,8.6384,16.2104,8.6384,-8.46745e-14,8.6384 C-8.46745e-14,10.1396,-8.46745e-14,11.6409,-8.46745e-14,13.1422 C4.61862,13.1422,9.23728,13.1422,13.8559,13.1422 C13.8559,44.7507,13.8559,76.3592,13.8559,107.968 C9.23728,107.968,4.61862,107.968,-8.46745e-14,107.968 C-8.46745e-14,109.469,-8.46745e-14,110.97,-8.46745e-14,112.472 C16.3826,112.472,32.7653,112.472,49.1479,112.472 C64.0292,112.472,74.9318,107.738,81.8557,98.2711 C81.8557,98.2711,81.8557,98.2711,81.8557,98.2711 C85.4324,93.3161,87.2208,87.8935,87.2208,82.0033 C87.2208,82.0033,87.2208,82.0033,87.2208,82.0033 C87.2208,72.7824,83.1272,65.6371,74.94,60.5673 C74.94,60.5673,74.94,60.5673,74.94,60.5673 C71.1335,58.3687,66.7446,56.81,61.7732,55.8912 C61.7732,55.8912,61.7732,55.8912,61.7732,55.8912 C70.0916,52.7738,75.8096,47.5235,78.9269,40.1403 C78.9269,40.1403,78.9269,40.1403,78.9269,40.1403 C80.0755,37.3674,80.6497,34.7095,80.6497,32.1663 C80.6497,32.1663,80.6498,32.1664,80.6498,32.1664 z M28.7209,13.1422 C33.9712,13.1422,39.2215,13.1422,44.4718,13.1422 C56.3671,13.1422,63.1186,18.3925,64.7266,28.8931 C64.7266,28.8931,64.7266,28.8931,64.7266,28.8931 C64.9563,30.3862,65.0711,31.9449,65.0711,33.5692 C65.0711,33.5692,65.0711,33.5692,65.0711,33.5692 C65.0711,41.0673,62.126,46.7196,56.2358,50.5261 C56.2358,50.5261,56.2358,50.5261,56.2358,50.5261 C52.7739,52.7083,48.7377,53.7993,44.1273,53.7993 C44.1273,53.7993,44.1273,53.7993,44.1273,53.7993 C38.9919,53.7993,33.8564,53.7993,28.7209,53.7993 C28.7209,40.247,28.7209,26.6946,28.7209,13.1422 C28.7209,13.1422,28.7209,13.1422,28.7209,13.1422 z M28.7209,58.4754 C34.9556,58.4754,41.1904,58.4754,47.4251,58.4754 C57.9258,58.4754,64.9645,62.9217,68.5412,71.8144 C68.5412,71.8144,68.5412,71.8144,68.5412,71.8144 C69.9194,75.0466,70.6085,78.566,70.6085,82.3725 C70.6085,82.3725,70.6085,82.3725,70.6085,82.3725 C70.6085,91.2488,67.7209,98.1644,61.9455,103.119 C61.9455,103.119,61.9455,103.119,61.9455,103.119 C58.139,106.352,53.586,107.968,48.2865,107.968 C48.2865,107.968,48.2865,107.968,48.2865,107.968 C41.7646,107.968,35.2427,107.968,28.7209,107.968 C28.7209,91.4702,28.7209,74.9728,28.7209,58.4753 C28.7209,58.4753,28.7209,58.4754,28.7209,58.4754 z M120.446,112.472 C136.311,112.472,152.177,112.472,168.043,112.472 C168.043,109.928,167.116,108.485,165.262,108.14 C165.262,108.14,165.262,108.14,165.262,108.14 C164.688,108.025,164.113,107.968,163.539,107.968 C163.539,107.968,163.539,107.968,163.539,107.968 C159.618,107.968,155.696,107.968,151.775,107.968 C151.775,76.3592,151.775,44.7507,151.775,13.1422 C155.114,13.1422,158.453,13.1422,161.792,13.1422 C171.144,13.1422,177.379,18.7945,180.496,30.0991 C180.496,30.0991,180.496,30.0991,180.496,30.0991 C180.496,30.5585,180.553,30.903,180.668,31.1327 C180.668,31.1327,180.668,31.1327,180.668,31.1327 C181.587,34.9966,182.506,38.8605,183.425,42.7244 C185.041,42.7244,186.657,42.7244,188.273,42.7244 C187.986,31.3624,187.699,20.0004,187.412,8.6384 C158.921,8.6384,130.429,8.6384,101.938,8.6384 C101.651,20.0004,101.364,31.3624,101.077,42.7244 C102.685,42.7244,104.293,42.7244,105.901,42.7244 C106.828,38.8605,107.755,34.9966,108.682,31.1327 C112.373,19.8281,118.657,13.8313,127.534,13.1422 C127.534,13.1422,127.534,13.1422,127.534,13.1422 C130.651,13.1422,133.768,13.1422,136.886,13.1422 C136.886,44.7507,136.886,76.3592,136.886,107.968 C131.406,107.968,125.926,107.968,120.446,107.968 C120.446,109.469,120.446,110.97,120.446,112.472 C120.446,112.472,120.446,112.472,120.446,112.472 z M289.153,104.522 C289.153,104.522,289.153,104.522,289.153,104.522 C289.153,109.362,289.85,112.127,291.245,112.816 C291.245,112.816,291.245,112.816,291.245,112.816 C292.049,113.161,293.14,113.333,294.518,113.333 C294.518,113.333,294.518,113.333,294.518,113.333 C294.518,102.43,294.518,91.5277,294.518,80.6251 C293.14,80.6251,291.762,80.6251,290.384,80.6251 C284.493,99.6575,272.721,109.231,255.067,109.346 C255.067,109.346,255.067,109.346,255.067,109.346 C240.071,109.346,229.865,101.79,224.451,86.6794 C224.451,86.6794,224.451,86.6794,224.451,86.6794 C221.793,79.2961,220.464,70.5921,220.464,60.5673 C220.464,60.5673,220.464,60.5673,220.464,60.5673 C220.464,38.9918,226.404,24.3401,238.282,16.6123 C238.282,16.6123,238.282,16.6123,238.282,16.6123 C243.483,13.3801,249.251,11.764,255.584,11.764 C255.584,11.764,255.584,11.764,255.584,11.764 C270.006,11.764,280.449,18.5648,286.913,32.1664 C286.913,32.1664,286.913,32.1664,286.913,32.1664 C288.062,34.5947,289.046,37.0803,289.867,39.6235 C289.867,39.6235,289.867,39.6235,289.867,39.6235 C291.245,39.6235,292.623,39.6235,294.001,39.6235 C293.829,29.008,293.657,18.3925,293.484,7.77703 C290.958,7.77703,289.399,8.58921,288.808,10.2135 C288.808,10.2135,288.808,10.2135,288.808,10.2135 C288.464,11.5917,288.292,13.8395,288.292,16.9569 C288.292,16.9569,288.292,16.9569,288.292,16.9569 C284.944,13.6098,279.235,10.8944,271.162,8.81069 C271.162,8.81069,271.162,8.81069,271.162,8.81069 C265.863,7.54733,260.44,6.91563,254.895,6.91563 C254.895,6.91563,254.895,6.91563,254.895,6.91563 C236.666,6.91563,222.712,13.6672,213.032,27.1704 C213.032,27.1704,213.032,27.1704,213.032,27.1704 C206.337,36.7358,202.99,47.7532,202.99,60.2227 C202.99,60.2227,202.99,60.2227,202.99,60.2227 C202.99,75.3338,207.658,88.0166,216.994,98.2711 C216.994,98.2711,216.994,98.2711,216.994,98.2711 C226.92,108.887,239.841,114.194,255.756,114.194 C255.756,114.194,255.756,114.194,255.756,114.194 C267.421,114.079,278.554,110.855,289.153,104.522 C289.153,104.522,289.153,104.522,289.153,104.522 z M401.821,112.472 C402.281,112.472,402.74,112.472,403.2,112.472 C414.619,79.3618,426.038,46.252,437.458,13.1422 C440.345,13.1422,443.233,13.1422,446.121,13.1422 C446.121,11.6409,446.121,10.1396,446.121,8.6384 C436.777,8.6384,427.433,8.6384,418.089,8.6384 C418.089,10.1396,418.089,11.6409,418.089,13.1422 C422.699,13.1422,427.31,13.1422,431.92,13.1422 C422.864,40.37,413.807,67.5978,404.75,94.8256 C395.464,67.5978,386.177,40.37,376.89,13.1422 C381.566,13.1422,386.243,13.1422,390.919,13.1422 C390.919,11.6409,390.919,10.1396,390.919,8.6384 C380.992,8.6384,371.066,8.6384,361.14,8.6384 C365.069,19.7133,368.999,30.7881,372.928,41.863 C366.866,59.4023,360.803,76.9417,354.741,94.481 C344.995,67.3681,335.249,40.2551,325.503,13.1422 C330.179,13.1422,334.855,13.1422,339.531,13.1422 C339.531,11.6409,339.531,10.1396,339.531,8.6384 C326.84,8.6384,314.149,8.6384,301.458,8.6384 C301.458,10.1396,301.458,11.6409,301.458,13.1422 C304.863,13.1422,308.267,13.1422,311.672,13.1422 C322.279,42.79,332.886,72.4379,343.494,102.086 C345.807,108.665,347.883,112.299,349.72,112.988 C349.72,112.988,349.72,112.988,349.72,112.988 C350.426,113.218,351.123,113.333,351.812,113.333 C351.812,113.333,351.812,113.333,351.812,113.333 C352.272,113.333,352.731,113.333,353.19,113.333 C360.689,92.1676,368.187,71.0023,375.685,49.8369 C381.854,67.2532,388.023,84.6695,394.192,102.086 C396.276,107.976,397.949,111.266,399.213,111.955 C399.213,111.955,399.213,111.955,399.213,111.955 C399.918,112.299,400.788,112.472,401.821,112.472 C401.821,112.472,401.821,112.472,401.821,112.472 C401.821,112.472,401.821,112.472,401.821,112.472 z M515.499,13.1422 C521.791,13.1422,528.083,13.1422,534.375,13.1422 C544.646,13.1422,551.275,17.7608,554.261,26.9981 C554.261,26.9981,554.261,26.9981,554.261,26.9981 C555.196,29.9842,555.664,33.2082,555.664,36.6701 C555.664,36.6701,555.664,36.6701,555.664,36.6701 C555.664,51.6664,548.97,59.9192,535.581,61.4286 C535.581,61.4286,535.581,61.4286,535.581,61.4286 C534.203,61.5435,532.817,61.6009,531.422,61.6009 C531.422,61.6009,531.422,61.6009,531.422,61.6009 C526.114,61.6009,520.807,61.6009,515.499,61.6009 C515.499,45.448,515.499,29.2951,515.499,13.1422 z M486.778,112.472 C502.119,112.472,517.459,112.472,532.8,112.472 C532.8,109.928,531.881,108.485,530.044,108.14 C530.044,108.14,530.044,108.14,530.044,108.14 C529.47,108.025,528.895,107.968,528.321,107.968 C528.321,107.968,528.321,107.968,528.321,107.968 C524.047,107.968,519.773,107.968,515.499,107.968 C515.499,94.1857,515.499,80.4036,515.499,66.6215 C520.577,66.6215,525.655,66.6215,530.733,66.6215 C549.651,66.6215,562.169,61.2564,568.289,50.5261 C568.289,50.5261,568.289,50.5261,568.289,50.5261 C570.717,46.4899,571.932,41.8138,571.932,36.4979 C571.932,36.4979,571.932,36.4979,571.932,36.4979 C571.932,25.0785,566.968,17.0635,557.042,12.4531 C557.042,12.4531,557.042,12.4531,557.042,12.4531 C551.726,9.90994,545.376,8.6384,537.993,8.6384 C537.993,8.6384,537.993,8.6384,537.993,8.6384 C520.922,8.6384,503.85,8.6384,486.778,8.6384 C486.778,10.1396,486.778,11.6409,486.778,13.1422 C491.397,13.1422,496.015,13.1422,500.634,13.1422 C500.634,44.7507,500.634,76.3592,500.634,107.968 C496.015,107.968,491.397,107.968,486.778,107.968 C486.778,109.469,486.778,110.97,486.778,112.472 C486.778,112.472,486.778,112.472,486.778,112.472 z M598.733,75.6045 C598.733,75.6045,598.733,75.6045,598.733,75.6045 C598.733,57.7206,603.638,46.818,613.45,42.8967 C613.45,42.8967,613.45,42.8967,613.45,42.8967 C615.993,41.9779,618.643,41.5185,621.399,41.5185 C621.399,41.5185,621.399,41.5185,621.399,41.5185 C634.213,41.5185,641.662,49.5991,643.746,65.7602 C643.746,65.7602,643.746,65.7602,643.746,65.7602 C644.09,68.5166,644.263,71.5684,644.263,74.9154 C644.263,74.9154,644.263,74.9154,644.263,74.9154 C644.263,94.2924,638.955,105.654,628.34,109.001 C628.34,109.001,628.34,109.001,628.34,109.001 C626.256,109.592,624.123,109.887,621.941,109.887 C621.941,109.887,621.941,109.887,621.941,109.887 C610.275,109.887,602.949,102.964,599.963,89.1159 C599.963,89.1159,599.963,89.1159,599.963,89.1159 C599.143,85.0797,598.733,80.5759,598.733,75.6046 C598.733,75.6046,598.733,75.6045,598.733,75.6045 z M621.941,37.187 C621.941,37.187,621.941,37.187,621.941,37.187 C610.866,37.187,601.637,40.9935,594.253,48.6064 C594.253,48.6064,594.253,48.6064,594.253,48.6064 C587.444,55.6451,584.04,64.4148,584.04,74.9154 C584.04,74.9154,584.04,74.9154,584.04,74.9154 C584.04,89.4522,589.348,100.355,599.963,107.623 C599.963,107.623,599.963,107.623,599.963,107.623 C606.411,112.004,613.557,114.194,621.399,114.194 C621.399,114.194,621.399,114.194,621.399,114.194 C632.474,114.194,641.646,110.273,648.914,102.43 C648.914,102.43,648.914,102.43,648.914,102.43 C655.608,95.2767,658.955,86.3348,658.955,75.6045 C658.955,75.6045,658.955,75.6045,658.955,75.6045 C658.955,61.0676,653.59,50.2799,642.86,43.2412 C642.86,43.2412,642.86,43.2412,642.86,43.2412 C636.527,39.205,629.554,37.1869,621.941,37.1869 C621.941,37.1869,621.941,37.187,621.941,37.187 z M687.504,75.6045 C687.504,75.6045,687.504,75.6045,687.504,75.6045 C687.504,57.7206,692.41,46.818,702.221,42.8967 C702.221,42.8967,702.221,42.8967,702.221,42.8967 C704.764,41.9779,707.422,41.5185,710.195,41.5185 C710.195,41.5185,710.195,41.5185,710.195,41.5185 C722.993,41.5185,730.433,49.5991,732.517,65.7602 C732.517,65.7602,732.517,65.7602,732.517,65.7602 C732.862,68.5166,733.034,71.5684,733.034,74.9154 C733.034,74.9154,733.034,74.9154,733.034,74.9154 C733.034,94.2924,727.726,105.654,717.111,109.001 C717.111,109.001,717.111,109.001,717.111,109.001 C715.027,109.592,712.894,109.887,710.712,109.887 C710.712,109.887,710.712,109.887,710.712,109.887 C699.047,109.887,691.721,102.964,688.735,89.1159 C688.735,89.1159,688.735,89.1159,688.735,89.1159 C687.914,85.0797,687.504,80.5759,687.504,75.6046 C687.504,75.6046,687.504,75.6045,687.504,75.6045 z M710.712,37.187 C710.712,37.187,710.712,37.187,710.712,37.187 C699.637,37.187,690.408,40.9935,683.025,48.6064 C683.025,48.6064,683.025,48.6064,683.025,48.6064 C676.216,55.6451,672.811,64.4148,672.811,74.9154 C672.811,74.9154,672.811,74.9154,672.811,74.9154 C672.811,89.4522,678.119,100.355,688.735,107.623 C688.735,107.623,688.735,107.623,688.735,107.623 C695.183,112.004,702.336,114.194,710.195,114.194 C710.195,114.194,710.195,114.194,710.195,114.194 C721.27,114.194,730.434,110.273,737.685,102.43 C737.685,102.43,737.685,102.43,737.685,102.43 C744.38,95.2767,747.727,86.3348,747.727,75.6045 C747.727,75.6045,747.727,75.6045,747.727,75.6045 C747.727,61.0676,742.362,50.2799,731.631,43.2412 C731.631,43.2412,731.631,43.2412,731.631,43.2412 C725.298,39.205,718.325,37.1869,710.712,37.1869 C710.712,37.1869,710.712,37.187,710.712,37.187 z M795.669,108.14 C795.669,108.14,795.669,108.14,795.669,108.14 C792.551,108.14,789.434,108.14,786.317,108.14 C786.317,72.0934,786.317,36.0467,786.317,-1.27012e-13 C777.67,-1.27012e-13,769.023,-1.27012e-13,760.377,-1.27012e-13 C760.377,1.43565,760.377,2.87125,760.377,4.3069 C764.7,4.3069,769.023,4.3069,773.347,4.3069 C773.347,35.456,773.347,66.6052,773.347,97.7543 C773.347,103.07,771.845,106.245,768.843,107.279 C768.843,107.279,768.843,107.279,768.843,107.279 C767.12,107.853,764.298,108.14,760.377,108.14 C760.377,108.14,760.377,108.14,760.377,108.14 C760.377,109.584,760.377,111.028,760.377,112.472 C773.585,112.472,786.792,112.472,800,112.472 C800,109.928,799.13,108.542,797.391,108.312 C797.391,108.312,797.391,108.312,797.391,108.312 C796.932,108.197,796.358,108.14,795.669,108.14 C795.669,108.14,795.669,108.14,795.669,108.14 z"/>
      </g>
    </g>
  </g>
</svg>
