<?xml version="1.0" encoding="utf-8"?>
<svg x="0pt" y="0pt" width="1270pt" height="115pt" viewBox="0 0 1270 115" xmlns="http://www.w3.org/2000/svg" xmlns:xlink="http://www.w3.org/1999/xlink">
  <g id="Layer 1">
    <g id="svg_2">
      <path id="svg_5" style="fill:#f6931a;fill-opacity:1;fill-rule:nonzero;opacity:1;stroke:none;" d="M80.6467,32.1651 C80.6467,32.1651,80.6467,32.1651,80.6467,32.1651 C80.6467,23.404,76.4958,16.8905,68.1941,12.6248 C68.1941,12.6248,68.1941,12.6248,68.1941,12.6248 C62.7635,9.96695,56.2418,8.63803,48.6292,8.63803 C48.6292,8.63803,48.6292,8.63803,48.6292,8.63803 C32.4194,8.63803,16.2097,8.63803,5.04871e-29,8.63803 C5.04871e-29,10.1392,5.04871e-29,11.6405,5.04871e-29,13.1417 C4.61844,13.1417,9.23695,13.1417,13.8554,13.1417 C13.8554,44.749,13.8554,76.3563,13.8554,107.964 C9.23695,107.964,4.61844,107.964,5.04871e-29,107.964 C5.04871e-29,109.465,5.04871e-29,110.966,5.04871e-29,112.467 C16.382,112.467,32.764,112.467,49.146,112.467 C64.0268,112.467,74.929,107.734,81.8525,98.2673 C81.8525,98.2673,81.8525,98.2673,81.8525,98.2673 C85.4292,93.3125,87.2175,87.8901,87.2175,82.0001 C87.2175,82.0001,87.2175,82.0001,87.2175,82.0001 C87.2175,72.7796,83.1241,65.6345,74.9371,60.5649 C74.9371,60.5649,74.9371,60.5649,74.9371,60.5649 C71.1308,58.3665,66.742,56.8078,61.7708,55.889 C61.7708,55.889,61.7708,55.889,61.7708,55.889 C70.089,52.7718,75.8067,47.5216,78.9239,40.1387 C78.9239,40.1387,78.9239,40.1387,78.9239,40.1387 C80.0724,37.366,80.6466,34.7081,80.6466,32.1651 C80.6466,32.1651,80.6467,32.1651,80.6467,32.1651 z M28.7198,13.1417 C33.9699,13.1417,39.22,13.1417,44.4702,13.1417 C56.3649,13.1417,63.1163,18.3918,64.7241,28.892 C64.7241,28.892,64.7241,28.892,64.7241,28.892 C64.9539,30.385,65.0687,31.9436,65.0687,33.5679 C65.0687,33.5679,65.0687,33.5679,65.0687,33.5679 C65.0687,41.0657,62.1237,46.7178,56.2337,50.5241 C56.2337,50.5241,56.2337,50.5241,56.2337,50.5241 C52.7719,52.7062,48.7359,53.7973,44.1256,53.7973 C44.1256,53.7973,44.1256,53.7973,44.1256,53.7973 C38.9904,53.7973,33.8551,53.7973,28.7198,53.7973 C28.7198,40.2454,28.7198,26.6936,28.7198,13.1417 C28.7198,13.1417,28.7198,13.1417,28.7198,13.1417 z M28.7198,58.4731 C34.9543,58.4731,41.1888,58.4731,47.4233,58.4731 C57.9236,58.4731,64.9621,62.9193,68.5387,71.8117 C68.5387,71.8117,68.5387,71.8117,68.5387,71.8117 C69.9168,75.0438,70.6059,78.563,70.6059,82.3693 C70.6059,82.3693,70.6059,82.3693,70.6059,82.3693 C70.6059,91.2453,67.7184,98.1607,61.9432,103.115 C61.9432,103.115,61.9432,103.115,61.9432,103.115 C58.1369,106.348,53.584,107.964,48.2847,107.964 C48.2847,107.964,48.2847,107.964,48.2847,107.964 C41.7631,107.964,35.2415,107.964,28.7198,107.964 C28.7198,91.4668,28.7198,74.9699,28.7198,58.4731 z M120.441,112.467 C136.306,112.467,152.171,112.467,168.036,112.467 C168.036,109.924,167.109,108.48,165.256,108.136 C165.256,108.136,165.256,108.136,165.256,108.136 C164.681,108.021,164.107,107.964,163.533,107.964 C163.533,107.964,163.533,107.964,163.533,107.964 C159.612,107.964,155.69,107.964,151.769,107.964 C151.769,76.3563,151.769,44.749,151.769,13.1417 C155.108,13.1417,158.447,13.1417,161.786,13.1417 C171.137,13.1417,177.372,18.7937,180.489,30.0979 C180.489,30.0979,180.489,30.0979,180.489,30.0979 C180.489,30.5573,180.547,30.9018,180.661,31.1315 C180.661,31.1315,180.661,31.1315,180.661,31.1315 C181.58,34.9953,182.499,38.859,183.418,42.7228 C185.034,42.7228,186.65,42.7228,188.266,42.7228 C187.979,31.3612,187.692,19.9997,187.405,8.6381 C158.914,8.6381,130.424,8.6381,101.934,8.6381 C101.647,19.9997,101.36,31.3612,101.073,42.7228 C102.681,42.7228,104.289,42.7228,105.897,42.7228 C106.824,38.859,107.75,34.9953,108.677,31.1315 C112.369,19.8273,118.653,13.8307,127.529,13.1417 C127.529,13.1417,127.529,13.1417,127.529,13.1417 C130.646,13.1417,133.763,13.1417,136.88,13.1417 C136.88,44.7491,136.88,76.3563,136.88,107.964 C131.401,107.964,125.921,107.964,120.441,107.964 C120.441,109.465,120.441,110.966,120.441,112.467 C120.441,112.467,120.441,112.467,120.441,112.467 z M289.142,104.518 C289.142,104.518,289.142,104.518,289.142,104.518 C289.142,109.358,289.839,112.123,291.234,112.812 C291.234,112.812,291.234,112.812,291.234,112.812 C292.038,113.156,293.129,113.329,294.507,113.329 C294.507,113.329,294.507,113.329,294.507,113.329 C294.507,102.426,294.507,91.5242,294.507,80.622 C293.129,80.622,291.75,80.622,290.372,80.622 C284.482,99.6537,272.711,109.227,255.057,109.342 C255.057,109.342,255.057,109.342,255.057,109.342 C240.062,109.342,229.857,101.787,224.442,86.676 C224.442,86.676,224.442,86.676,224.442,86.676 C221.785,79.2931,220.456,70.5893,220.456,60.5649 C220.456,60.5649,220.456,60.5649,220.456,60.5649 C220.456,38.9902,226.395,24.3391,238.273,16.6116 C238.273,16.6116,238.273,16.6116,238.273,16.6116 C243.474,13.3796,249.241,11.7635,255.574,11.7635 C255.574,11.7635,255.574,11.7635,255.574,11.7635 C269.995,11.7635,280.438,18.564,286.902,32.1651 C286.902,32.1651,286.902,32.1651,286.902,32.1651 C288.051,34.5933,289.035,37.0789,289.856,39.6219 C289.856,39.6219,289.856,39.6219,289.856,39.6219 C291.234,39.6219,292.612,39.6219,293.99,39.6219 C293.818,29.0068,293.646,18.3917,293.473,7.77662 C290.947,7.77662,289.388,8.58872,288.797,10.213 C288.797,10.213,288.797,10.213,288.797,10.213 C288.453,11.5912,288.281,13.8389,288.281,16.9561 C288.281,16.9561,288.281,16.9561,288.281,16.9561 C284.934,13.6091,279.224,10.8939,271.152,8.81024 C271.152,8.81024,271.152,8.81024,271.152,8.81024 C265.853,7.5469,260.43,6.91527,254.885,6.91527 C254.885,6.91527,254.885,6.91527,254.885,6.91527 C236.657,6.91527,222.703,13.6666,213.024,27.1692 C213.024,27.1692,213.024,27.1692,213.024,27.1692 C206.33,36.7343,202.983,47.7514,202.983,60.2203 C202.983,60.2203,202.983,60.2203,202.983,60.2203 C202.983,75.3308,207.65,88.0131,216.986,98.2673 C216.986,98.2673,216.986,98.2673,216.986,98.2673 C226.912,108.882,239.832,114.19,255.746,114.19 C255.746,114.19,255.746,114.19,255.746,114.19 C267.411,114.075,278.543,110.851,289.142,104.518 C289.142,104.518,289.142,104.518,289.142,104.518 z M401.806,112.467 C402.265,112.467,402.725,112.467,403.184,112.467 C414.603,79.3587,426.022,46.2502,437.441,13.1417 C440.329,13.1417,443.216,13.1417,446.104,13.1417 C446.104,11.6405,446.104,10.1392,446.104,8.63803 C436.76,8.63803,427.417,8.63803,418.073,8.63803 C418.073,10.1392,418.073,11.6405,418.073,13.1417 C422.683,13.1417,427.294,13.1417,431.904,13.1417 C422.847,40.3684,413.791,67.5952,404.735,94.8219 C395.449,67.5952,386.162,40.3684,376.876,13.1417 C381.552,13.1417,386.228,13.1417,390.904,13.1417 C390.904,11.6405,390.904,10.1392,390.904,8.63803 C380.978,8.63803,371.052,8.63803,361.126,8.63803 C365.055,19.7125,368.985,30.787,372.914,41.8614 C366.852,59.4,360.79,76.9387,354.727,94.4774 C344.982,67.3654,335.236,40.2535,325.491,13.1416 C330.167,13.1416,334.843,13.1416,339.518,13.1416 C339.518,11.6404,339.518,10.1392,339.518,8.63797 C326.828,8.63797,314.137,8.63797,301.447,8.63797 C301.447,10.1392,301.447,11.6404,301.447,13.1416 C304.851,13.1416,308.256,13.1416,311.66,13.1416 C322.267,42.7883,332.874,72.435,343.481,102.082 C345.794,108.661,347.869,112.295,349.707,112.984 C349.707,112.984,349.707,112.984,349.707,112.984 C350.412,113.214,351.11,113.329,351.799,113.329 C351.799,113.329,351.799,113.329,351.799,113.329 C352.258,113.329,352.718,113.329,353.177,113.329 C360.675,92.164,368.173,70.9995,375.67,49.8349 C381.839,67.2505,388.008,84.6662,394.177,102.082 C396.261,107.972,397.934,111.261,399.198,111.95 C399.198,111.95,399.198,111.95,399.198,111.95 C399.903,112.295,400.773,112.467,401.806,112.467 C401.806,112.467,401.806,112.467,401.806,112.467 C401.806,112.467,401.806,112.467,401.806,112.467 z M481.567,8.63803 C481.567,10.1392,481.567,11.6405,481.567,13.1417 C486.185,13.1417,490.804,13.1417,495.422,13.1417 C495.422,33.2725,495.422,53.4035,495.422,73.5344 C495.652,100.523,509.089,114.075,535.733,114.19 C535.733,114.19,535.733,114.19,535.733,114.19 C556.044,114.19,568.333,105.888,572.599,89.2847 C572.599,89.2847,572.599,89.2847,572.599,89.2847 C573.862,84.1987,574.494,78.4318,574.494,71.9839 C574.494,71.9839,574.494,71.9839,574.494,71.9839 C574.494,52.3699,574.494,32.7557,574.494,13.1417 C579.112,13.1417,583.731,13.1417,588.349,13.1417 C588.349,11.6405,588.349,10.1392,588.349,8.63803 C577.094,8.63803,565.839,8.63803,554.584,8.63803 C554.584,10.1392,554.584,11.6405,554.584,13.1417 C559.203,13.1417,563.821,13.1417,568.44,13.1417 C568.44,33.1003,568.44,53.0589,568.44,73.0176 C568.44,95.3961,560.13,107.447,543.51,109.17 C543.51,109.17,543.51,109.17,543.51,109.17 C542.132,109.284,540.754,109.342,539.375,109.342 C539.375,109.342,539.375,109.342,539.375,109.342 C525.298,109.342,516.414,103.403,512.723,91.5242 C512.723,91.5242,512.723,91.5242,512.723,91.5242 C511.099,86.3397,510.286,79.9985,510.286,72.5007 C510.286,72.5007,510.286,72.5007,510.286,72.5007 C510.286,52.7143,510.286,32.9279,510.286,13.1416 C514.847,13.1416,519.409,13.1416,523.97,13.1416 C523.97,11.6404,523.97,10.1392,523.97,8.63797 C509.835,8.63797,495.701,8.63797,481.567,8.63797 C481.567,8.63797,481.567,8.63803,481.567,8.63803 z M614.633,112.467 C630.498,112.467,646.363,112.467,662.228,112.467 C662.228,109.924,661.301,108.48,659.447,108.136 C659.447,108.136,659.447,108.136,659.447,108.136 C658.873,108.021,658.299,107.964,657.724,107.964 C657.724,107.964,657.724,107.964,657.724,107.964 C653.803,107.964,649.882,107.964,645.961,107.964 C645.961,76.3563,645.961,44.749,645.961,13.1417 C649.308,13.1417,652.655,13.1417,656.002,13.1417 C665.337,13.1417,671.563,18.7937,674.681,30.0979 C674.681,30.0979,674.681,30.0979,674.681,30.0979 C674.681,30.5573,674.738,30.9018,674.853,31.1315 C674.853,31.1315,674.853,31.1315,674.853,31.1315 C675.78,34.9953,676.707,38.859,677.634,42.7228 C679.25,42.7228,680.866,42.7228,682.482,42.7228 C682.187,31.3612,681.891,19.9997,681.596,8.6381 C653.106,8.6381,624.616,8.6381,596.126,8.6381 C595.839,19.9997,595.552,31.3612,595.264,42.7228 C596.88,42.7228,598.497,42.7228,600.113,42.7228 C601.031,38.859,601.95,34.9953,602.869,31.1315 C606.56,19.8273,612.852,13.8307,621.745,13.1417 C621.745,13.1417,621.745,13.1417,621.745,13.1417 C624.854,13.1417,627.963,13.1417,631.072,13.1417 C631.072,44.7491,631.072,76.3563,631.072,107.964 C625.592,107.964,620.112,107.964,614.633,107.964 C614.633,109.465,614.633,110.966,614.633,112.467 C614.633,112.467,614.633,112.467,614.633,112.467 z M690.259,112.467 C700.931,112.467,711.604,112.467,722.276,112.467 C722.276,110.966,722.276,109.465,722.276,107.964 C717.658,107.964,713.039,107.964,708.421,107.964 C718.289,94.3543,728.158,80.7451,738.027,67.1358 C747.198,80.7451,756.369,94.3543,765.541,107.964 C761.324,107.964,757.108,107.964,752.891,107.964 C752.891,109.465,752.891,110.966,752.891,112.467 C766.336,112.467,779.781,112.467,793.227,112.467 C793.227,109.924,792.3,108.48,790.446,108.136 C790.446,108.136,790.446,108.136,790.446,108.136 C789.872,108.021,789.297,107.964,788.723,107.964 C788.723,107.964,788.723,107.964,788.723,107.964 C786.877,107.964,785.032,107.964,783.186,107.964 C771.299,90.3757,759.413,72.7878,747.526,55.2 C756.468,42.7966,765.409,30.3932,774.351,17.9898 C776.549,14.9874,779.027,13.3714,781.783,13.1417 C781.783,13.1417,781.783,13.1417,781.783,13.1417 C782.374,13.1417,783.014,13.1417,783.703,13.1417 C783.703,13.1417,783.703,13.1417,783.703,13.1417 C786.229,13.1417,787.673,12.2229,788.034,10.3853 C788.034,10.3853,788.034,10.3853,788.034,10.3853 C788.149,9.79468,788.206,9.21229,788.206,8.63803 C788.206,8.63803,788.206,8.63803,788.206,8.63803 C778.165,8.63803,768.125,8.63803,758.084,8.63803 C758.084,10.1392,758.084,11.6405,758.084,13.1417 C762.702,13.1417,767.321,13.1417,771.939,13.1417 C762.883,25.7748,753.826,38.4079,744.77,51.0409 C736.23,38.4078,727.69,25.7747,719.151,13.1417 C723.302,13.1417,727.453,13.1417,731.603,13.1417 C731.603,11.6405,731.603,10.1392,731.603,8.63803 C718.109,8.63803,704.615,8.63803,691.12,8.63803 C691.12,10.1392,691.12,11.6405,691.12,13.1417 C694.697,13.1417,698.273,13.1417,701.85,13.1417 C712.925,29.6385,723.999,46.1354,735.073,62.6322 C725.213,76.1266,715.353,89.621,705.492,103.115 C703.064,106.348,699.487,107.964,694.762,107.964 C694.762,107.964,694.762,107.964,694.762,107.964 C692.219,107.964,690.776,108.891,690.431,110.745 C690.431,110.745,690.431,110.745,690.431,110.745 C690.316,111.319,690.259,111.893,690.259,112.467 C690.259,112.467,690.259,112.467,690.259,112.467 z M854.653,6.91533 C854.653,6.91533,854.653,6.91533,854.653,6.91533 C840.806,6.91533,828.919,11.4682,818.993,20.5739 C818.993,20.5739,818.993,20.5739,818.993,20.5739 C808.149,30.6147,802.726,43.7072,802.726,59.8513 C802.726,59.8513,802.726,59.8513,802.726,59.8513 C802.726,78.5548,809.133,92.9762,821.946,103.115 C821.946,103.115,821.946,103.115,821.946,103.115 C831.282,110.498,842.012,114.19,854.136,114.19 C854.136,114.19,854.136,114.19,854.136,114.19 C867.737,114.19,879.443,109.58,889.255,100.359 C889.255,100.359,889.255,100.359,889.255,100.359 C900.214,90.0886,905.694,76.8238,905.694,60.5649 C905.694,60.5649,905.694,60.5649,905.694,60.5649 C905.694,41.5168,899.058,27.038,885.785,17.1285 C885.785,17.1285,885.785,17.1285,885.785,17.1285 C876.794,10.3197,866.417,6.91533,854.653,6.91533 C854.653,6.91533,854.653,6.91533,854.653,6.91533 z M854.653,109.342 C854.653,109.342,854.653,109.342,854.653,109.342 C837.918,109.342,827.188,100.408,822.463,82.5416 C822.463,82.5416,822.463,82.5416,822.463,82.5416 C820.839,76.1923,820.027,68.8667,820.027,60.5649 C820.027,60.5649,820.027,60.5649,820.027,60.5649 C820.027,33.1003,828.337,17.1777,844.957,12.7971 C844.957,12.7971,844.957,12.7971,844.957,12.7971 C847.844,12.108,850.904,11.7635,854.136,11.7635 C854.136,11.7635,854.136,11.7635,854.136,11.7635 C876.859,11.9932,888.278,28.0225,888.393,59.8513 C888.393,59.8513,888.393,59.8513,888.393,59.8513 C888.393,85.0026,881.412,100.638,867.45,106.758 C867.45,106.758,867.45,106.758,867.45,106.758 C863.529,108.48,859.263,109.342,854.653,109.342 C854.653,109.342,854.653,109.342,854.653,109.342 z M984.593,13.1417 C990.877,13.1417,997.161,13.1417,1003.44,13.1417 C1013.72,13.1417,1020.35,17.7601,1023.35,26.997 C1023.35,26.997,1023.35,26.997,1023.35,26.997 C1024.27,29.9831,1024.73,33.207,1024.73,36.6688 C1024.73,36.6688,1024.73,36.6688,1024.73,36.6688 C1024.73,51.6644,1018.05,59.9169,1004.68,61.4263 C1004.68,61.4263,1004.68,61.4263,1004.68,61.4263 C1003.28,61.5412,1001.89,61.5986,1000.52,61.5986 C1000.52,61.5986,1000.52,61.5986,1000.52,61.5986 C995.209,61.5986,989.901,61.5986,984.593,61.5986 C984.593,45.4463,984.593,29.294,984.593,13.1417 C984.593,13.1417,984.593,13.1417,984.593,13.1417 z M955.874,112.467 C971.214,112.467,986.554,112.467,1001.89,112.467 C1001.89,109.924,1000.98,108.48,999.138,108.136 C999.138,108.136,999.138,108.136,999.138,108.136 C998.564,108.021,997.981,107.964,997.391,107.964 C997.391,107.964,997.391,107.964,997.391,107.964 C993.125,107.964,988.859,107.964,984.593,107.964 C984.593,94.1821,984.593,80.4005,984.593,66.619 C989.671,66.619,994.749,66.619,999.827,66.619 C1018.74,66.619,1031.26,61.254,1037.38,50.5241 C1037.38,50.5241,1037.38,50.5241,1037.38,50.5241 C1039.79,46.488,1041,41.8121,1041,36.4964 C1041,36.4964,1041,36.4964,1041,36.4964 C1041,25.0774,1036.04,17.0628,1026.13,12.4526 C1026.13,12.4526,1026.13,12.4526,1026.13,12.4526 C1020.82,9.90957,1014.47,8.63803,1007.09,8.63803 C1007.09,8.63803,1007.09,8.63803,1007.09,8.63803 C990.016,8.63803,972.945,8.63803,955.874,8.63803 C955.874,10.1392,955.874,11.6405,955.874,13.1417 C960.484,13.1417,965.094,13.1417,969.704,13.1417 C969.704,44.749,969.704,76.3563,969.704,107.964 C965.094,107.964,960.484,107.964,955.874,107.964 C955.874,109.465,955.874,110.966,955.874,112.467 C955.874,112.467,955.874,112.467,955.874,112.467 z M1067.82,75.6016 C1067.82,75.6016,1067.82,75.6016,1067.82,75.6016 C1067.82,57.7184,1072.73,46.8162,1082.54,42.8951 C1082.54,42.8951,1082.54,42.8951,1082.54,42.8951 C1085.07,41.9763,1087.72,41.5169,1090.49,41.5169 C1090.49,41.5169,1090.49,41.5169,1090.49,41.5169 C1103.3,41.5169,1110.74,49.5971,1112.81,65.7577 C1112.81,65.7577,1112.81,65.7577,1112.81,65.7577 C1113.16,68.514,1113.33,71.5656,1113.33,74.9126 C1113.33,74.9126,1113.33,74.9126,1113.33,74.9126 C1113.33,94.2888,1108.02,105.65,1097.41,108.997 C1097.41,108.997,1097.41,108.997,1097.41,108.997 C1095.34,109.588,1093.2,109.883,1091.01,109.883 C1091.01,109.883,1091.01,109.883,1091.01,109.883 C1079.36,109.883,1072.03,102.96,1069.03,89.1125 C1069.03,89.1125,1069.03,89.1125,1069.03,89.1125 C1068.23,85.0764,1067.82,80.5728,1067.82,75.6016 z M1091.01,37.1856 C1091.01,37.1856,1091.01,37.1856,1091.01,37.1856 C1079.93,37.1856,1070.7,40.9919,1063.32,48.6046 C1063.32,48.6046,1063.32,48.6046,1063.32,48.6046 C1056.51,55.643,1053.11,64.4124,1053.11,74.9126 C1053.11,74.9126,1053.11,74.9126,1053.11,74.9126 C1053.11,89.4489,1058.41,100.351,1069.03,107.619 C1069.03,107.619,1069.03,107.619,1069.03,107.619 C1075.49,112,1082.65,114.19,1090.49,114.19 C1090.49,114.19,1090.49,114.19,1090.49,114.19 C1101.56,114.19,1110.74,110.269,1118,102.426 C1118,102.426,1118,102.426,1118,102.426 C1124.7,95.2731,1128.04,86.3316,1128.04,75.6016 C1128.04,75.6016,1128.04,75.6016,1128.04,75.6016 C1128.04,61.0653,1122.68,50.278,1111.95,43.2396 C1111.95,43.2396,1111.95,43.2396,1111.95,43.2396 C1105.6,39.2036,1098.62,37.1856,1091.01,37.1856 C1091.01,37.1856,1091.01,37.1856,1091.01,37.1856 z M1156.59,75.6016 C1156.59,75.6016,1156.59,75.6016,1156.59,75.6016 C1156.59,57.7184,1161.5,46.8162,1171.31,42.8951 C1171.31,42.8951,1171.31,42.8951,1171.31,42.8951 C1173.84,41.9763,1176.48,41.5169,1179.26,41.5169 C1179.26,41.5169,1179.26,41.5169,1179.26,41.5169 C1192.07,41.5169,1199.51,49.5971,1201.58,65.7577 C1201.58,65.7577,1201.58,65.7577,1201.58,65.7577 C1201.92,68.514,1202.1,71.5656,1202.1,74.9126 C1202.1,74.9126,1202.1,74.9126,1202.1,74.9126 C1202.1,94.2888,1196.79,105.65,1186.17,108.997 C1186.17,108.997,1186.17,108.997,1186.17,108.997 C1184.11,109.588,1181.97,109.883,1179.77,109.883 C1179.77,109.883,1179.77,109.883,1179.77,109.883 C1168.13,109.883,1160.8,102.96,1157.8,89.1125 C1157.8,89.1125,1157.8,89.1125,1157.8,89.1125 C1156.99,85.0764,1156.59,80.5728,1156.59,75.6016 z M1179.77,37.1856 C1179.77,37.1856,1179.77,37.1856,1179.77,37.1856 C1168.7,37.1856,1159.47,40.9919,1152.09,48.6046 C1152.09,48.6046,1152.09,48.6046,1152.09,48.6046 C1145.28,55.643,1141.88,64.4124,1141.88,74.9126 C1141.88,74.9126,1141.88,74.9126,1141.88,74.9126 C1141.88,89.4489,1147.18,100.351,1157.8,107.619 C1157.8,107.619,1157.8,107.619,1157.8,107.619 C1164.26,112,1171.42,114.19,1179.26,114.19 C1179.26,114.19,1179.26,114.19,1179.26,114.19 C1190.33,114.19,1199.5,110.269,1206.77,102.426 C1206.77,102.426,1206.77,102.426,1206.77,102.426 C1213.47,95.2731,1216.81,86.3316,1216.81,75.6016 C1216.81,75.6016,1216.81,75.6016,1216.81,75.6016 C1216.81,61.0653,1211.45,50.278,1200.72,43.2396 C1200.72,43.2396,1200.72,43.2396,1200.72,43.2396 C1194.37,39.2036,1187.39,37.1856,1179.77,37.1856 C1179.77,37.1856,1179.77,37.1856,1179.77,37.1856 z M1264.75,108.136 C1264.75,108.136,1264.75,108.136,1264.75,108.136 C1261.64,108.136,1258.52,108.136,1255.4,108.136 C1255.4,72.0906,1255.4,36.0453,1255.4,2.1552e-13 C1246.75,2.1552e-13,1238.09,2.1552e-13,1229.44,2.1552e-13 C1229.44,1.43561,1229.44,2.87115,1229.44,4.30675 C1233.77,4.30675,1238.1,4.30675,1242.43,4.30675 C1242.43,35.4547,1242.43,66.6027,1242.43,97.7506 C1242.43,103.066,1240.93,106.241,1237.93,107.275 C1237.93,107.275,1237.93,107.275,1237.93,107.275 C1236.19,107.849,1233.36,108.136,1229.44,108.136 C1229.44,108.136,1229.44,108.136,1229.44,108.136 C1229.44,109.58,1229.44,111.023,1229.44,112.467 C1242.64,112.467,1255.85,112.467,1269.06,112.467 C1269.06,109.924,1268.2,108.538,1266.48,108.308 C1266.48,108.308,1266.48,108.308,1266.48,108.308 C1266.02,108.193,1265.44,108.136,1264.75,108.136 C1264.75,108.136,1264.75,108.136,1264.75,108.136 z"/>
    </g>
  </g>
</svg>
