<?xml version="1.0" encoding="utf-8"?>
<svg x="0pt" y="0pt" width="800pt" height="800pt" viewBox="0 0 800 800" xmlns="http://www.w3.org/2000/svg" xmlns:xlink="http://www.w3.org/1999/xlink">
  <g id="Layer 1">
    <path id="Path" style="fill:#000000;fill-opacity:1;fill-rule:evenodd;opacity:1;stroke:none;" d="M400,50 C593.3,50,750,206.7,750,400 C750,593.3,593.3,750,400,750 C206.7,750,50,593.3,50,400 C50,206.7,206.7,50,400,50 z"/>
    <path id="Path 0" style="fill:#ff9900;fill-opacity:1;fill-rule:evenodd;opacity:1;stroke:none;" d="M788.027,496.823 C734.596,711.133,517.536,841.56,303.201,788.116 C88.9527,734.686,-41.4737,517.613,11.982,303.315 C65.3877,88.9794,282.448,-41.4595,496.721,11.9712 C711.044,65.4019,841.458,282.5,788.027,496.823 C788.027,496.823,788.027,496.823,788.027,496.823 z M576.38,343.056 C584.343,289.826,543.814,261.21,488.395,242.121 C488.395,242.121,506.372,170.013,506.372,170.013 C506.372,170.013,462.48,159.074,462.48,159.074 C462.48,159.074,444.978,229.282,444.978,229.282 C433.439,226.407,421.588,223.694,409.812,221.006 C409.812,221.006,427.439,150.336,427.439,150.336 C427.439,150.336,383.572,139.397,383.572,139.397 C383.572,139.397,365.582,211.48,365.582,211.48 C356.031,209.305,346.655,207.155,337.554,204.892 C337.554,204.892,337.604,204.667,337.604,204.667 C337.604,204.667,277.073,189.553,277.073,189.553 C277.073,189.553,265.397,236.433,265.397,236.433 C265.397,236.433,297.962,243.896,297.275,244.358 C315.052,248.796,318.265,260.56,317.727,269.886 C317.727,269.886,297.25,352.032,297.25,352.032 C298.475,352.345,300.063,352.795,301.813,353.495 C300.35,353.133,298.788,352.733,297.175,352.345 C297.175,352.345,268.472,467.42,268.472,467.42 C266.297,472.82,260.784,480.921,248.357,477.846 C248.795,478.483,216.454,469.883,216.454,469.883 C216.454,469.883,194.664,520.125,194.664,520.125 C194.664,520.125,251.783,534.364,251.783,534.364 C262.409,537.027,272.822,539.815,283.073,542.44 C283.073,542.44,264.909,615.373,264.909,615.373 C264.909,615.373,308.751,626.312,308.751,626.312 C308.751,626.312,326.741,554.154,326.741,554.154 C338.717,557.404,350.343,560.405,361.719,563.23 C361.719,563.23,343.792,635.05,343.792,635.05 C343.792,635.05,387.685,645.989,387.685,645.989 C387.685,645.989,405.849,573.193,405.849,573.193 C480.694,587.358,536.975,581.644,560.665,513.95 C579.755,459.444,559.715,428.003,520.336,407.501 C549.014,400.888,570.617,382.023,576.38,343.056 C576.38,343.056,576.38,343.056,576.38,343.056 z M476.094,483.684 C462.53,538.19,370.758,508.724,341.005,501.336 C341.005,501.336,365.107,404.713,365.107,404.713 C394.86,412.139,490.27,426.84,476.094,483.684 C476.094,483.684,476.094,483.684,476.094,483.684 z M489.67,342.269 C477.294,391.849,400.911,366.659,376.133,360.483 C376.133,360.483,397.986,272.849,397.986,272.849 C422.763,279.025,502.559,290.551,489.67,342.269 C489.67,342.269,489.67,342.269,489.67,342.269 z"/>
    <path id="Path Copy" style="fill:none;opacity:1;stroke:#ff9900;stroke-linecap:square;stroke-linejoin:miter;stroke-miterlimit:10;stroke-opacity:1;stroke-width:25;" d="M376,416 C376,416,434.026,428.476,476.5,427.5 C499.753,426.966,534.596,418.569,553.394,408.341 C576.585,395.724,585.5,366.5,585.5,366.5"/>
  </g>
</svg>
